<svg clip-rule="evenodd" fill-rule="evenodd" stroke-linejoin="round" stroke-miterlimit="2" viewBox="0 0 1024 1024" xmlns="http://www.w3.org/2000/svg"><path d="M-.075-.006h1024.002v1024.002H-.075z" fill="#073b4c"/><g fill-rule="nonzero"><path d="M422.453 465c0 2.112-1.706 3.824-3.792 3.824h-11.376c-2.086 0-3.792-1.712-3.792-3.824v-11.38c0-2.111 1.706-3.823 3.792-3.823h11.376c2.086 0 3.792 1.712 3.792 3.824zm0 25.363c0 2.112-1.706 3.823-3.792 3.823h-11.376c-2.086 0-3.792-1.711-3.792-3.823v-11.38c0-2.13 1.706-3.823 3.792-3.823h11.376c2.086 0 3.792 1.693 3.792 3.823zm0 25.362c0 2.094-1.706 3.805-3.792 3.805h-11.376c-2.086 0-3.792-1.711-3.792-3.805v-11.398c0-2.112 1.706-3.823 3.792-3.823h11.376c2.086 0 3.792 1.711 3.792 3.823zm0 25.362c0 2.094-1.706 3.805-3.792 3.805h-11.376c-2.086 0-3.792-1.711-3.792-3.805v-11.398c0-2.112 1.706-3.823 3.792-3.823h11.376c2.086 0 3.792 1.711 3.792 3.823zm0 25.344c0 2.112-1.706 3.824-3.792 3.824h-11.376c-2.086 0-3.792-1.712-3.792-3.824v-11.397c0-2.076 1.706-3.824 3.792-3.824h11.376c2.086 0 3.792 1.748 3.792 3.824zm0 25.362c0 2.112-1.706 3.824-3.792 3.824h-11.376c-2.086 0-3.792-1.712-3.792-3.824v-11.397a3.805 3.805 0 0 1 3.792-3.787h11.376a3.805 3.805 0 0 1 3.792 3.787zm0 25.344c0 2.13-1.706 3.824-3.792 3.824h-11.376c-2.086 0-3.792-1.693-3.792-3.824v-11.379c0-2.094 1.706-3.805 3.792-3.805h11.376c2.086 0 3.792 1.711 3.792 3.805v11.38zm0 25.381c0 2.094-1.706 3.805-3.792 3.805h-11.376c-2.086 0-3.792-1.711-3.792-3.805v-11.38c0-2.111 1.706-3.823 3.792-3.823h11.376c2.086 0 3.792 1.712 3.792 3.824zm0 25.362c0 2.094-1.706 3.805-3.792 3.805h-11.376c-2.086 0-3.792-1.711-3.792-3.805V656.5c0-2.13 1.706-3.823 3.792-3.823h11.376c2.086 0 3.792 1.694 3.792 3.824v11.38zm0 25.362a3.793 3.793 0 0 1-3.792 3.787h-11.376a3.793 3.793 0 0 1-3.792-3.787v-11.397c0-2.112 1.706-3.824 3.792-3.824h11.376c2.086 0 3.792 1.712 3.792 3.824zM447.327 465c0 2.112-1.706 3.824-3.792 3.824h-11.376c-2.086 0-3.792-1.712-3.792-3.824v-11.38c0-2.111 1.706-3.823 3.792-3.823h11.376c2.086 0 3.792 1.712 3.792 3.824zm0 25.363c0 2.112-1.706 3.823-3.792 3.823h-11.376c-2.086 0-3.792-1.711-3.792-3.823v-11.38c0-2.13 1.706-3.823 3.792-3.823h11.376c2.086 0 3.792 1.693 3.792 3.823zm0 25.362c0 2.094-1.706 3.805-3.792 3.805h-11.376c-2.086 0-3.792-1.711-3.792-3.805v-11.398c0-2.112 1.706-3.823 3.792-3.823h11.376c2.086 0 3.792 1.711 3.792 3.823zm0 25.362c0 2.094-1.706 3.805-3.792 3.805h-11.376c-2.086 0-3.792-1.711-3.792-3.805v-11.398c0-2.112 1.706-3.823 3.792-3.823h11.376c2.086 0 3.792 1.711 3.792 3.823zm0 25.344c0 2.112-1.706 3.824-3.792 3.824h-11.376c-2.086 0-3.792-1.712-3.792-3.824v-11.397c0-2.076 1.706-3.824 3.792-3.824h11.376c2.086 0 3.792 1.748 3.792 3.824zm0 25.362c0 2.112-1.706 3.824-3.792 3.824h-11.376c-2.086 0-3.792-1.712-3.792-3.824v-11.397a3.805 3.805 0 0 1 3.792-3.787h11.376a3.805 3.805 0 0 1 3.792 3.787zm0 25.344c0 2.13-1.706 3.824-3.792 3.824h-11.376c-2.086 0-3.792-1.693-3.792-3.824v-11.379c0-2.094 1.706-3.805 3.792-3.805h11.376c2.086 0 3.792 1.711 3.792 3.805v11.38zm0 25.381c0 2.094-1.706 3.805-3.792 3.805h-11.376c-2.086 0-3.792-1.711-3.792-3.805v-11.38c0-2.111 1.706-3.823 3.792-3.823h11.376c2.086 0 3.792 1.712 3.792 3.824zm0 25.362c0 2.094-1.706 3.805-3.792 3.805h-11.376c-2.086 0-3.792-1.711-3.792-3.805V656.5c0-2.13 1.706-3.823 3.792-3.823h11.376c2.086 0 3.792 1.694 3.792 3.824v11.38zm0 25.362a3.793 3.793 0 0 1-3.792 3.787h-11.376a3.793 3.793 0 0 1-3.792-3.787v-11.397c0-2.112 1.706-3.824 3.792-3.824h11.376c2.086 0 3.792 1.712 3.792 3.824zm0 25.363c0 2.093-1.706 3.805-3.792 3.805h-11.376c-2.086 0-3.792-1.712-3.792-3.805v-11.398c0-2.112 1.706-3.823 3.792-3.823h11.376c2.086 0 3.792 1.711 3.792 3.823zM472.2 465c0 2.112-1.687 3.824-3.791 3.824h-11.376c-2.086 0-3.792-1.712-3.792-3.824v-11.38c0-2.111 1.706-3.823 3.792-3.823h11.376c2.104 0 3.792 1.712 3.792 3.824V465zm0 25.363c0 2.112-1.687 3.823-3.791 3.823h-11.376c-2.086 0-3.792-1.711-3.792-3.823v-11.38c0-2.13 1.706-3.823 3.792-3.823h11.376c2.104 0 3.792 1.693 3.792 3.823v11.38zm0 25.362a3.797 3.797 0 0 1-3.791 3.805h-11.376c-2.086 0-3.792-1.711-3.792-3.805v-11.398c0-2.112 1.706-3.823 3.792-3.823h11.376c2.104 0 3.792 1.711 3.792 3.823v11.398zm0 25.362a3.797 3.797 0 0 1-3.791 3.805h-11.376c-2.086 0-3.792-1.711-3.792-3.805v-11.398c0-2.112 1.706-3.823 3.792-3.823h11.376c2.104 0 3.792 1.711 3.792 3.823v11.398zm0 25.344c0 2.112-1.687 3.824-3.791 3.824h-11.376c-2.086 0-3.792-1.712-3.792-3.824v-11.397c0-2.076 1.706-3.824 3.792-3.824h11.376c2.104 0 3.792 1.748 3.792 3.824v11.397zm0 25.362c0 2.112-1.687 3.824-3.791 3.824h-11.376c-2.086 0-3.792-1.712-3.792-3.824v-11.397a3.805 3.805 0 0 1 3.792-3.787h11.376a3.793 3.793 0 0 1 3.792 3.787v11.397zm0 25.344c0 2.13-1.687 3.824-3.791 3.824h-11.376c-2.086 0-3.792-1.693-3.792-3.824v-11.379c0-2.094 1.706-3.805 3.792-3.805h11.376a3.797 3.797 0 0 1 3.792 3.805v11.38zm0 25.381a3.797 3.797 0 0 1-3.791 3.805h-11.376c-2.086 0-3.792-1.711-3.792-3.805v-11.38c0-2.111 1.706-3.823 3.792-3.823h11.376c2.104 0 3.792 1.712 3.792 3.824v11.379zm0 25.362a3.797 3.797 0 0 1-3.791 3.805h-11.376c-2.086 0-3.792-1.711-3.792-3.805V656.5c0-2.13 1.706-3.823 3.792-3.823h11.376c2.104 0 3.792 1.694 3.792 3.824v11.38zm0 25.362a3.781 3.781 0 0 1-3.791 3.787h-11.376a3.793 3.793 0 0 1-3.792-3.787v-11.397c0-2.112 1.706-3.824 3.792-3.824h11.376c2.104 0 3.792 1.712 3.792 3.824v11.397zm0 25.363a3.797 3.797 0 0 1-3.791 3.805h-11.376c-2.086 0-3.792-1.712-3.792-3.805v-11.398c0-2.112 1.706-3.823 3.792-3.823h11.376c2.104 0 3.792 1.711 3.792 3.823v11.398zm0 25.344c0 2.112-1.687 3.823-3.791 3.823h-11.376c-2.086 0-3.792-1.711-3.792-3.823V732.55c0-2.094 1.706-3.823 3.792-3.823h11.376c2.104 0 3.792 1.73 3.792 3.823v11.398zm24.857-50.707a3.766 3.766 0 0 1-3.774 3.787h-11.376a3.793 3.793 0 0 1-3.792-3.787v-11.397c0-2.112 1.706-3.824 3.792-3.824h11.376c2.104 0 3.774 1.712 3.774 3.824zm0 25.363c0 2.093-1.67 3.805-3.774 3.805h-11.376c-2.086 0-3.792-1.712-3.792-3.805v-11.398c0-2.112 1.706-3.823 3.792-3.823h11.376c2.104 0 3.774 1.711 3.774 3.823zm0 25.344c0 2.112-1.67 3.823-3.774 3.823h-11.376c-2.086 0-3.792-1.711-3.792-3.823V732.55c0-2.094 1.706-3.823 3.792-3.823h11.376c2.104 0 3.774 1.73 3.774 3.823v11.398zm24.892-50.707a3.781 3.781 0 0 1-3.792 3.787h-11.358a3.781 3.781 0 0 1-3.792-3.787v-11.397c0-2.112 1.688-3.824 3.792-3.824h11.358c2.104 0 3.792 1.712 3.792 3.824zm0 25.363a3.797 3.797 0 0 1-3.792 3.805h-11.358a3.797 3.797 0 0 1-3.792-3.805v-11.398c0-2.112 1.688-3.823 3.792-3.823h11.358c2.104 0 3.792 1.711 3.792 3.823zm0 25.344c0 2.112-1.688 3.823-3.792 3.823h-11.358c-2.104 0-3.792-1.711-3.792-3.823V732.55c0-2.094 1.688-3.823 3.792-3.823h11.358c2.104 0 3.792 1.73 3.792 3.823v11.398zm24.874-50.707a3.778 3.778 0 0 1-3.774 3.787h-11.376a3.781 3.781 0 0 1-3.792-3.787v-11.397c0-2.112 1.688-3.824 3.792-3.824h11.376c2.086 0 3.774 1.712 3.774 3.824zm0 25.363c0 2.093-1.688 3.805-3.774 3.805h-11.376a3.797 3.797 0 0 1-3.792-3.805v-11.398c0-2.112 1.688-3.823 3.792-3.823h11.376c2.086 0 3.774 1.711 3.774 3.823zm0 25.344c0 2.112-1.688 3.823-3.774 3.823h-11.376c-2.104 0-3.792-1.711-3.792-3.823V732.55c0-2.094 1.688-3.823 3.792-3.823h11.376c2.086 0 3.774 1.73 3.774 3.823v11.398zM571.715 465c0 2.112-1.724 3.824-3.81 3.824h-11.358c-2.104 0-3.792-1.712-3.792-3.824v-11.38c0-2.111 1.688-3.823 3.792-3.823h11.358c2.086 0 3.81 1.712 3.81 3.824zm0 25.363c0 2.112-1.724 3.823-3.81 3.823h-11.358c-2.104 0-3.792-1.711-3.792-3.823v-11.38c0-2.13 1.688-3.823 3.792-3.823h11.358a3.816 3.816 0 0 1 3.81 3.823zm0 25.362c0 2.094-1.724 3.805-3.81 3.805h-11.358a3.797 3.797 0 0 1-3.792-3.805v-11.398c0-2.112 1.688-3.823 3.792-3.823h11.358c2.086 0 3.81 1.711 3.81 3.823zm0 25.362c0 2.094-1.724 3.805-3.81 3.805h-11.358a3.797 3.797 0 0 1-3.792-3.805v-11.398c0-2.112 1.688-3.823 3.792-3.823h11.358c2.086 0 3.81 1.711 3.81 3.823zm0 25.344c0 2.112-1.724 3.824-3.81 3.824h-11.358c-2.104 0-3.792-1.712-3.792-3.824v-11.397c0-2.076 1.688-3.824 3.792-3.824h11.358c2.086 0 3.81 1.748 3.81 3.824zm0 25.362c0 2.112-1.724 3.824-3.81 3.824h-11.358c-2.104 0-3.792-1.712-3.792-3.824v-11.397a3.793 3.793 0 0 1 3.792-3.787h11.358c2.086 0 3.81 1.711 3.81 3.787zm0 25.344a3.816 3.816 0 0 1-3.81 3.824h-11.358c-2.104 0-3.792-1.693-3.792-3.824v-11.379a3.797 3.797 0 0 1 3.792-3.805h11.358c2.086 0 3.81 1.711 3.81 3.805v11.38zm0 25.381c0 2.094-1.724 3.805-3.81 3.805h-11.358a3.797 3.797 0 0 1-3.792-3.805v-11.38c0-2.111 1.688-3.823 3.792-3.823h11.358c2.086 0 3.81 1.712 3.81 3.824zm0 25.362c0 2.094-1.724 3.805-3.81 3.805h-11.358a3.797 3.797 0 0 1-3.792-3.805V656.5c0-2.13 1.688-3.823 3.792-3.823h11.358a3.816 3.816 0 0 1 3.81 3.824v11.38zm0 25.362c0 2.094-1.724 3.787-3.81 3.787h-11.358a3.781 3.781 0 0 1-3.792-3.787v-11.397c0-2.112 1.688-3.824 3.792-3.824h11.358c2.086 0 3.81 1.712 3.81 3.824zm0 25.363c0 2.093-1.724 3.805-3.81 3.805h-11.358a3.797 3.797 0 0 1-3.792-3.805v-11.398c0-2.112 1.688-3.823 3.792-3.823h11.358c2.086 0 3.81 1.711 3.81 3.823zm0 25.344c0 2.112-1.724 3.823-3.81 3.823h-11.358c-2.104 0-3.792-1.711-3.792-3.823V732.55c0-2.094 1.688-3.823 3.792-3.823h11.358c2.086 0 3.81 1.73 3.81 3.823v11.398zM596.57 465c0 2.112-1.705 3.824-3.773 3.824h-11.376c-2.086 0-3.791-1.712-3.791-3.824v-11.38c0-2.111 1.705-3.823 3.791-3.823h11.376c2.068 0 3.774 1.712 3.774 3.824V465zm0 25.363c0 2.112-1.705 3.823-3.773 3.823h-11.376c-2.086 0-3.791-1.711-3.791-3.823v-11.38c0-2.13 1.705-3.823 3.791-3.823h11.376c2.068 0 3.774 1.693 3.774 3.823v11.38zm0 25.362c0 2.094-1.705 3.805-3.773 3.805h-11.376c-2.086 0-3.791-1.711-3.791-3.805v-11.398c0-2.112 1.705-3.823 3.791-3.823h11.376c2.068 0 3.774 1.711 3.774 3.823v11.398zm0 25.362c0 2.094-1.705 3.805-3.773 3.805h-11.376c-2.086 0-3.791-1.711-3.791-3.805v-11.398c0-2.112 1.705-3.823 3.791-3.823h11.376c2.068 0 3.774 1.711 3.774 3.823v11.398zm0 25.344c0 2.112-1.705 3.824-3.773 3.824h-11.376c-2.086 0-3.791-1.712-3.791-3.824v-11.397c0-2.076 1.705-3.824 3.791-3.824h11.376c2.068 0 3.774 1.748 3.774 3.824v11.397zm0 25.362c0 2.112-1.705 3.824-3.773 3.824h-11.376c-2.086 0-3.791-1.712-3.791-3.824v-11.397a3.805 3.805 0 0 1 3.791-3.787h11.376c2.068 0 3.774 1.711 3.774 3.787v11.397zm0 25.344c0 2.13-1.705 3.824-3.773 3.824h-11.376c-2.086 0-3.791-1.693-3.791-3.824v-11.379c0-2.094 1.705-3.805 3.791-3.805h11.376c2.068 0 3.774 1.711 3.774 3.805v11.38zm0 25.381c0 2.094-1.705 3.805-3.773 3.805h-11.376c-2.086 0-3.791-1.711-3.791-3.805v-11.38c0-2.111 1.705-3.823 3.791-3.823h11.376c2.068 0 3.774 1.712 3.774 3.824v11.379zm0 25.362c0 2.094-1.705 3.805-3.773 3.805h-11.376c-2.086 0-3.791-1.711-3.791-3.805V656.5c0-2.13 1.705-3.823 3.791-3.823h11.376c2.068 0 3.774 1.694 3.774 3.824v11.38zm0 25.362a3.79 3.79 0 0 1-3.773 3.787h-11.376a3.793 3.793 0 0 1-3.791-3.787v-11.397c0-2.112 1.705-3.824 3.791-3.824h11.376c2.068 0 3.774 1.712 3.774 3.824v11.397zm0 25.363c0 2.093-1.705 3.805-3.773 3.805h-11.376c-2.086 0-3.791-1.712-3.791-3.805v-11.398c0-2.112 1.705-3.823 3.791-3.823h11.376c2.068 0 3.774 1.711 3.774 3.823v11.398zM621.445 465c0 2.112-1.706 3.824-3.792 3.824h-11.376c-2.068 0-3.773-1.712-3.773-3.824v-11.38c0-2.111 1.705-3.823 3.773-3.823h11.376c2.086 0 3.792 1.712 3.792 3.824zm0 25.363c0 2.112-1.706 3.823-3.792 3.823h-11.376c-2.068 0-3.773-1.711-3.773-3.823v-11.38c0-2.13 1.705-3.823 3.773-3.823h11.376c2.086 0 3.792 1.693 3.792 3.823zm0 25.362c0 2.094-1.706 3.805-3.792 3.805h-11.376c-2.068 0-3.773-1.711-3.773-3.805v-11.398c0-2.112 1.705-3.823 3.773-3.823h11.376c2.086 0 3.792 1.711 3.792 3.823zm0 25.362c0 2.094-1.706 3.805-3.792 3.805h-11.376c-2.068 0-3.773-1.711-3.773-3.805v-11.398c0-2.112 1.705-3.823 3.773-3.823h11.376c2.086 0 3.792 1.711 3.792 3.823zm0 25.344c0 2.112-1.706 3.824-3.792 3.824h-11.376c-2.068 0-3.773-1.712-3.773-3.824v-11.397c0-2.076 1.705-3.824 3.773-3.824h11.376c2.086 0 3.792 1.748 3.792 3.824zm0 25.362c0 2.112-1.706 3.824-3.792 3.824h-11.376c-2.068 0-3.773-1.712-3.773-3.824v-11.397c0-2.076 1.705-3.787 3.773-3.787h11.376a3.805 3.805 0 0 1 3.792 3.787zm0 25.344c0 2.13-1.706 3.824-3.792 3.824h-11.376c-2.068 0-3.773-1.693-3.773-3.824v-11.379c0-2.094 1.705-3.805 3.773-3.805h11.376c2.086 0 3.792 1.711 3.792 3.805v11.38zm0 25.381c0 2.094-1.706 3.805-3.792 3.805h-11.376c-2.068 0-3.773-1.711-3.773-3.805v-11.38c0-2.111 1.705-3.823 3.773-3.823h11.376c2.086 0 3.792 1.712 3.792 3.824zm0 25.362c0 2.094-1.706 3.805-3.792 3.805h-11.376c-2.068 0-3.773-1.711-3.773-3.805V656.5c0-2.13 1.705-3.823 3.773-3.823h11.376c2.086 0 3.792 1.694 3.792 3.824v11.38zm0 25.362a3.793 3.793 0 0 1-3.792 3.787h-11.376a3.79 3.79 0 0 1-3.773-3.787v-11.397c0-2.112 1.705-3.824 3.773-3.824h11.376c2.086 0 3.792 1.712 3.792 3.824zM661.888 465.037c0 2.093-1.7 3.787-3.78 3.787h-11.342a3.787 3.787 0 0 1-3.78-3.787V453.62c0-2.076 1.7-3.824 3.78-3.824h11.341c2.08 0 3.78 1.748 3.78 3.824v11.416zm0 25.362c0 2.094-1.7 3.787-3.78 3.787h-11.342a3.787 3.787 0 0 1-3.78-3.787v-11.416c0-2.094 1.7-3.823 3.78-3.823h11.341c2.08 0 3.78 1.73 3.78 3.823V490.4zm0 25.344c0 2.112-1.7 3.787-3.78 3.787h-11.342a3.776 3.776 0 0 1-3.78-3.787v-11.416c0-2.057 1.7-3.823 3.78-3.823h11.341c2.08 0 3.78 1.766 3.78 3.823v11.416zm24.799-50.706c0 2.093-1.7 3.787-3.763 3.787h-11.359a3.799 3.799 0 0 1-3.78-3.787V453.62c0-2.076 1.718-3.824 3.78-3.824h11.36c2.061 0 3.762 1.748 3.762 3.824v11.416zm0 25.362c0 2.094-1.7 3.787-3.763 3.787h-11.359a3.799 3.799 0 0 1-3.78-3.787v-11.416c0-2.094 1.718-3.823 3.78-3.823h11.36c2.061 0 3.762 1.73 3.762 3.823V490.4zm0 25.344c0 2.112-1.7 3.787-3.763 3.787h-11.359a3.787 3.787 0 0 1-3.78-3.787v-11.416c0-2.057 1.718-3.823 3.78-3.823h11.36c2.061 0 3.762 1.766 3.762 3.823zm24.799-50.706c0 2.093-1.7 3.787-3.78 3.787h-11.342a3.787 3.787 0 0 1-3.78-3.787V453.62c0-2.076 1.7-3.824 3.78-3.824h11.341c2.08 0 3.78 1.748 3.78 3.824v11.416zm0 25.362c0 2.094-1.7 3.787-3.78 3.787h-11.342a3.787 3.787 0 0 1-3.78-3.787v-11.416c0-2.094 1.7-3.823 3.78-3.823h11.341c2.08 0 3.78 1.73 3.78 3.823V490.4zm0 25.344c0 2.112-1.7 3.787-3.78 3.787h-11.342a3.776 3.776 0 0 1-3.78-3.787v-11.416c0-2.057 1.7-3.823 3.78-3.823h11.341c2.08 0 3.78 1.766 3.78 3.823v11.416zm24.799-50.706c0 2.093-1.7 3.787-3.78 3.787h-11.342a3.799 3.799 0 0 1-3.78-3.787V453.62c0-2.076 1.718-3.824 3.78-3.824h11.341c2.08 0 3.78 1.748 3.78 3.824v11.416zm0 25.362c0 2.094-1.7 3.787-3.78 3.787h-11.342a3.799 3.799 0 0 1-3.78-3.787v-11.416c0-2.094 1.718-3.823 3.78-3.823h11.341c2.08 0 3.78 1.73 3.78 3.823V490.4zm0 25.344c0 2.112-1.7 3.787-3.78 3.787h-11.342a3.787 3.787 0 0 1-3.78-3.787v-11.416c0-2.057 1.718-3.823 3.78-3.823h11.341c2.08 0 3.78 1.766 3.78 3.823v11.416zm0 25.362c0 2.112-1.7 3.805-3.78 3.805h-11.342c-2.062 0-3.78-1.693-3.78-3.805V529.69c0-2.057 1.718-3.787 3.78-3.787h11.341c2.08 0 3.78 1.73 3.78 3.787v11.416zm0 25.345a3.78 3.78 0 0 1-3.78 3.804h-11.342a3.791 3.791 0 0 1-3.78-3.805v-11.416c0-2.057 1.718-3.787 3.78-3.787h11.341c2.08 0 3.78 1.73 3.78 3.787v11.416zm0 25.361c0 2.112-1.7 3.806-3.78 3.806h-11.342c-2.062 0-3.78-1.694-3.78-3.806v-11.397c0-2.076 1.718-3.805 3.78-3.805h11.341c2.08 0 3.78 1.73 3.78 3.805v11.397zm0 25.399c0 2.076-1.7 3.769-3.78 3.769h-11.342c-2.062 0-3.78-1.693-3.78-3.769v-11.416c0-2.112 1.718-3.823 3.78-3.823h11.341c2.08 0 3.78 1.711 3.78 3.823v11.416zm0 25.344c0 2.076-1.7 3.769-3.78 3.769h-11.342c-2.062 0-3.78-1.693-3.78-3.769v-11.416c0-2.075 1.718-3.823 3.78-3.823h11.341c2.08 0 3.78 1.748 3.78 3.823v11.416zm0 25.362c0 2.094-1.7 3.77-3.78 3.77h-11.342c-2.062 0-3.78-1.676-3.78-3.77v-11.415c0-2.094 1.718-3.824 3.78-3.824h11.341c2.08 0 3.78 1.73 3.78 3.824v11.415zm0 25.344c0 2.112-1.7 3.824-3.78 3.824h-11.342c-2.062 0-3.78-1.712-3.78-3.824v-11.397c0-2.094 1.718-3.805 3.78-3.805h11.341c2.08 0 3.78 1.711 3.78 3.805v11.397zm0 25.363c0 2.112-1.7 3.823-3.78 3.823h-11.342c-2.062 0-3.78-1.711-3.78-3.823v-11.38c0-2.112 1.718-3.823 3.78-3.823h11.341c2.08 0 3.78 1.711 3.78 3.823v11.38zm0 25.344c0 2.13-1.7 3.823-3.78 3.823h-11.342c-2.062 0-3.78-1.693-3.78-3.823v-11.38c0-2.112 1.718-3.823 3.78-3.823h11.341c2.08 0 3.78 1.711 3.78 3.823v11.38zm24.799-278.93a3.776 3.776 0 0 1-3.78 3.787h-11.342a3.787 3.787 0 0 1-3.78-3.787V453.62c0-2.076 1.7-3.824 3.78-3.824h11.341c2.099 0 3.78 1.748 3.78 3.824v11.416zm0 25.362a3.776 3.776 0 0 1-3.78 3.787h-11.342a3.787 3.787 0 0 1-3.78-3.787v-11.416c0-2.094 1.7-3.823 3.78-3.823h11.341c2.099 0 3.78 1.73 3.78 3.823V490.4zm0 25.344a3.764 3.764 0 0 1-3.78 3.787h-11.342a3.776 3.776 0 0 1-3.78-3.787v-11.416c0-2.057 1.7-3.823 3.78-3.823h11.341c2.099 0 3.78 1.766 3.78 3.823v11.416zm0 25.362a3.78 3.78 0 0 1-3.78 3.805h-11.342c-2.08 0-3.78-1.693-3.78-3.805V529.69c0-2.057 1.7-3.787 3.78-3.787h11.341c2.099 0 3.78 1.73 3.78 3.787v11.416zm0 25.345c0 2.13-1.682 3.804-3.78 3.804h-11.342a3.78 3.78 0 0 1-3.78-3.805v-11.416c0-2.057 1.7-3.787 3.78-3.787h11.341c2.099 0 3.78 1.73 3.78 3.787v11.416zm0 25.361a3.78 3.78 0 0 1-3.78 3.806h-11.342c-2.08 0-3.78-1.694-3.78-3.806v-11.397c0-2.076 1.7-3.805 3.78-3.805h11.341c2.099 0 3.78 1.73 3.78 3.805v11.397zm0 25.399a3.772 3.772 0 0 1-3.78 3.769h-11.342c-2.08 0-3.78-1.693-3.78-3.769v-11.416c0-2.112 1.7-3.823 3.78-3.823h11.341c2.099 0 3.78 1.711 3.78 3.823v11.416zm0 25.344a3.772 3.772 0 0 1-3.78 3.769h-11.342c-2.08 0-3.78-1.693-3.78-3.769v-11.416c0-2.075 1.7-3.823 3.78-3.823h11.341c2.099 0 3.78 1.748 3.78 3.823v11.416zm0 25.362a3.76 3.76 0 0 1-3.78 3.77h-11.342a3.772 3.772 0 0 1-3.78-3.77v-11.415c0-2.094 1.7-3.824 3.78-3.824h11.341c2.099 0 3.78 1.73 3.78 3.824v11.415zm0 25.344c0 2.112-1.682 3.824-3.78 3.824h-11.342c-2.08 0-3.78-1.712-3.78-3.824v-11.397c0-2.094 1.7-3.805 3.78-3.805h11.341c2.099 0 3.78 1.711 3.78 3.805v11.397zm0 25.363c0 2.112-1.682 3.823-3.78 3.823h-11.342c-2.08 0-3.78-1.711-3.78-3.823v-11.38c0-2.112 1.7-3.823 3.78-3.823h11.341c2.099 0 3.78 1.711 3.78 3.823v11.38zm0 25.344c0 2.13-1.682 3.823-3.78 3.823h-11.342c-2.08 0-3.78-1.693-3.78-3.823v-11.38c0-2.112 1.7-3.823 3.78-3.823h11.341c2.099 0 3.78 1.711 3.78 3.823v11.38zm24.799-278.93a3.776 3.776 0 0 1-3.78 3.787H770.76a3.787 3.787 0 0 1-3.78-3.787V453.62c0-2.076 1.7-3.824 3.78-3.824h11.341c2.099 0 3.78 1.748 3.78 3.824v11.416zm0 25.362a3.776 3.776 0 0 1-3.78 3.787H770.76a3.787 3.787 0 0 1-3.78-3.787v-11.416c0-2.094 1.7-3.823 3.78-3.823h11.341c2.099 0 3.78 1.73 3.78 3.823V490.4zm0 25.344a3.764 3.764 0 0 1-3.78 3.787H770.76a3.776 3.776 0 0 1-3.78-3.787v-11.416c0-2.057 1.7-3.823 3.78-3.823h11.341c2.099 0 3.78 1.766 3.78 3.823v11.416zm0 25.362a3.78 3.78 0 0 1-3.78 3.805H770.76c-2.08 0-3.78-1.693-3.78-3.805V529.69c0-2.057 1.7-3.787 3.78-3.787h11.341c2.099 0 3.78 1.73 3.78 3.787v11.416zm0 25.345c0 2.13-1.682 3.804-3.78 3.804H770.76a3.78 3.78 0 0 1-3.78-3.805v-11.416c0-2.057 1.7-3.787 3.78-3.787h11.341c2.099 0 3.78 1.73 3.78 3.787v11.416zm0 25.361a3.78 3.78 0 0 1-3.78 3.806H770.76c-2.08 0-3.78-1.694-3.78-3.806v-11.397c0-2.076 1.7-3.805 3.78-3.805h11.341c2.099 0 3.78 1.73 3.78 3.805v11.397zm0 25.399a3.772 3.772 0 0 1-3.78 3.769H770.76c-2.08 0-3.78-1.693-3.78-3.769v-11.416c0-2.112 1.7-3.823 3.78-3.823h11.341c2.099 0 3.78 1.711 3.78 3.823v11.416zm0 25.344a3.772 3.772 0 0 1-3.78 3.769H770.76c-2.08 0-3.78-1.693-3.78-3.769v-11.416c0-2.075 1.7-3.823 3.78-3.823h11.341c2.099 0 3.78 1.748 3.78 3.823v11.416zm0 25.362a3.76 3.76 0 0 1-3.78 3.77H770.76a3.772 3.772 0 0 1-3.78-3.77v-11.415c0-2.094 1.7-3.824 3.78-3.824h11.341c2.099 0 3.78 1.73 3.78 3.824v11.415zm0 25.344c0 2.112-1.682 3.824-3.78 3.824H770.76c-2.08 0-3.78-1.712-3.78-3.824v-11.397c0-2.094 1.7-3.805 3.78-3.805h11.341c2.099 0 3.78 1.711 3.78 3.805v11.397zm0 25.363c0 2.112-1.682 3.823-3.78 3.823H770.76c-2.08 0-3.78-1.711-3.78-3.823v-11.38c0-2.112 1.7-3.823 3.78-3.823h11.341c2.099 0 3.78 1.711 3.78 3.823v11.38zm0 25.344c0 2.13-1.682 3.823-3.78 3.823H770.76c-2.08 0-3.78-1.693-3.78-3.823v-11.38c0-2.112 1.7-3.823 3.78-3.823h11.341c2.099 0 3.78 1.711 3.78 3.823v11.38zm24.799-278.93c0 2.093-1.7 3.787-3.78 3.787h-11.324a3.776 3.776 0 0 1-3.78-3.787V453.62c0-2.076 1.682-3.824 3.78-3.824h11.323c2.08 0 3.78 1.748 3.78 3.824v11.416zm0 25.362c0 2.094-1.7 3.787-3.78 3.787h-11.324a3.776 3.776 0 0 1-3.78-3.787v-11.416c0-2.094 1.682-3.823 3.78-3.823h11.323c2.08 0 3.78 1.73 3.78 3.823V490.4zm0 25.344c0 2.112-1.7 3.787-3.78 3.787h-11.324a3.764 3.764 0 0 1-3.78-3.787v-11.416c0-2.057 1.682-3.823 3.78-3.823h11.323c2.08 0 3.78 1.766 3.78 3.823v11.416zm24.818-50.706a3.788 3.788 0 0 1-3.781 3.787h-11.342a3.776 3.776 0 0 1-3.78-3.787V453.62c0-2.076 1.682-3.824 3.78-3.824h11.342c2.08 0 3.78 1.748 3.78 3.824v11.416zm0 25.362a3.788 3.788 0 0 1-3.781 3.787h-11.342a3.776 3.776 0 0 1-3.78-3.787v-11.416c0-2.094 1.682-3.823 3.78-3.823h11.342c2.08 0 3.78 1.73 3.78 3.823V490.4zm0 25.344a3.776 3.776 0 0 1-3.781 3.787h-11.342a3.764 3.764 0 0 1-3.78-3.787v-11.416c0-2.057 1.682-3.823 3.78-3.823h11.342c2.08 0 3.78 1.766 3.78 3.823v11.416zm24.798-50.706a3.799 3.799 0 0 1-3.78 3.787h-11.342a3.776 3.776 0 0 1-3.78-3.787V453.62c0-2.076 1.682-3.824 3.78-3.824h11.342c2.062 0 3.78 1.748 3.78 3.824v11.416zm0 25.362a3.799 3.799 0 0 1-3.78 3.787h-11.342a3.776 3.776 0 0 1-3.78-3.787v-11.416c0-2.094 1.682-3.823 3.78-3.823h11.342c2.062 0 3.78 1.73 3.78 3.823V490.4zm0 25.344a3.787 3.787 0 0 1-3.78 3.787h-11.342a3.764 3.764 0 0 1-3.78-3.787v-11.416c0-2.057 1.682-3.823 3.78-3.823h11.342c2.062 0 3.78 1.766 3.78 3.823zM182.541 515.75c0 2.075-1.711 3.805-3.787 3.805h-11.416a3.815 3.815 0 0 1-3.805-3.805v-11.434a3.815 3.815 0 0 1 3.805-3.806h11.416c2.076 0 3.787 1.73 3.787 3.806zm0 25.344c0 2.093-1.711 3.805-3.787 3.805h-11.416a3.804 3.804 0 0 1-3.805-3.805V529.66c0-2.076 1.693-3.77 3.805-3.77h11.416c2.076 0 3.787 1.694 3.787 3.77zm0 25.362c0 2.094-1.711 3.805-3.787 3.805h-11.416a3.804 3.804 0 0 1-3.805-3.805v-11.434c0-2.057 1.693-3.769 3.805-3.769h11.416c2.076 0 3.787 1.712 3.787 3.769zm0 25.362a3.796 3.796 0 0 1-3.787 3.787h-11.416a3.788 3.788 0 0 1-3.805-3.787v-11.452c0-2.057 1.693-3.769 3.805-3.769h11.416c2.076 0 3.787 1.712 3.787 3.769zm0 25.381c0 2.057-1.711 3.768-3.787 3.768h-11.416c-2.112 0-3.805-1.711-3.805-3.768v-11.47c0-2.058 1.693-3.77 3.805-3.77h11.416c2.076 0 3.787 1.712 3.787 3.77zm0 25.361c0 2.058-1.711 3.77-3.787 3.77h-11.416c-2.112 0-3.805-1.712-3.805-3.77v-11.45a3.788 3.788 0 0 1 3.805-3.787h11.416a3.796 3.796 0 0 1 3.787 3.787v11.452zm0 25.345c0 2.057-1.711 3.769-3.787 3.769h-11.416c-2.112 0-3.805-1.712-3.805-3.77v-11.433a3.804 3.804 0 0 1 3.805-3.805h11.416c2.076 0 3.787 1.711 3.787 3.805zm0 25.362c0 2.076-1.711 3.769-3.787 3.769h-11.416c-2.112 0-3.805-1.693-3.805-3.769v-11.434a3.815 3.815 0 0 1 3.805-3.805h11.416c2.076 0 3.787 1.73 3.787 3.805zm24.98-202.88c0 2.076-1.73 3.787-3.823 3.787H192.3a3.8 3.8 0 0 1-3.805-3.787v-11.434a3.804 3.804 0 0 1 3.805-3.805h11.398c2.094 0 3.823 1.712 3.823 3.805zm0 25.363c0 2.075-1.73 3.805-3.823 3.805H192.3a3.815 3.815 0 0 1-3.805-3.805v-11.434a3.815 3.815 0 0 1 3.805-3.806h11.398c2.094 0 3.823 1.73 3.823 3.806zm0 25.344c0 2.093-1.73 3.805-3.823 3.805H192.3a3.804 3.804 0 0 1-3.805-3.805V529.66c0-2.076 1.693-3.77 3.805-3.77h11.398c2.094 0 3.823 1.694 3.823 3.77zm0 25.362c0 2.094-1.73 3.805-3.823 3.805H192.3a3.804 3.804 0 0 1-3.805-3.805v-11.434c0-2.057 1.693-3.769 3.805-3.769h11.398c2.094 0 3.823 1.712 3.823 3.769zm0 25.362c0 2.094-1.73 3.787-3.823 3.787H192.3a3.788 3.788 0 0 1-3.805-3.787v-11.452c0-2.057 1.693-3.769 3.805-3.769h11.398c2.094 0 3.823 1.712 3.823 3.769zm0 25.381c0 2.057-1.73 3.768-3.823 3.768H192.3c-2.112 0-3.805-1.711-3.805-3.768v-11.47c0-2.058 1.693-3.77 3.805-3.77h11.398c2.094 0 3.823 1.712 3.823 3.77zm0 25.361c0 2.058-1.73 3.77-3.823 3.77H192.3c-2.112 0-3.805-1.712-3.805-3.77v-11.45a3.788 3.788 0 0 1 3.805-3.787h11.398c2.094 0 3.823 1.693 3.823 3.787v11.452zm0 25.345c0 2.057-1.73 3.769-3.823 3.769H192.3c-2.112 0-3.805-1.712-3.805-3.77v-11.433a3.804 3.804 0 0 1 3.805-3.805h11.398c2.094 0 3.823 1.711 3.823 3.805zm0 25.362c0 2.076-1.73 3.769-3.823 3.769H192.3c-2.112 0-3.805-1.693-3.805-3.769v-11.434a3.815 3.815 0 0 1 3.805-3.805h11.398c2.094 0 3.823 1.73 3.823 3.805zm0 25.344c0 2.094-1.73 3.805-3.823 3.805H192.3a3.804 3.804 0 0 1-3.805-3.805v-11.434a3.8 3.8 0 0 1 3.805-3.787h11.398c2.094 0 3.823 1.712 3.823 3.787zm24.944-253.568c0 2.076-1.712 3.787-3.787 3.787h-11.416c-2.094 0-3.805-1.711-3.805-3.787V453.61a3.804 3.804 0 0 1 3.805-3.805h11.416a3.8 3.8 0 0 1 3.787 3.805v11.434zm0 25.344c0 2.076-1.712 3.787-3.787 3.787h-11.416c-2.094 0-3.805-1.711-3.805-3.787v-11.434a3.815 3.815 0 0 1 3.805-3.805h11.416c2.075 0 3.787 1.712 3.787 3.805zm0 25.363c0 2.075-1.712 3.805-3.787 3.805h-11.416c-2.094 0-3.805-1.73-3.805-3.805v-11.434c0-2.076 1.711-3.806 3.805-3.806h11.416c2.075 0 3.787 1.73 3.787 3.806zm0 25.344c0 2.093-1.712 3.805-3.787 3.805h-11.416a3.815 3.815 0 0 1-3.805-3.805V529.66c0-2.076 1.711-3.77 3.805-3.77h11.416c2.075 0 3.787 1.694 3.787 3.77zm0 25.362c0 2.094-1.712 3.805-3.787 3.805h-11.416a3.815 3.815 0 0 1-3.805-3.805v-11.434c0-2.057 1.711-3.769 3.805-3.769h11.416c2.075 0 3.787 1.712 3.787 3.769zm0 25.362a3.796 3.796 0 0 1-3.787 3.787h-11.416c-2.094 0-3.805-1.693-3.805-3.787v-11.452c0-2.057 1.711-3.769 3.805-3.769h11.416c2.075 0 3.787 1.712 3.787 3.769zm0 25.381c0 2.057-1.712 3.768-3.787 3.768h-11.416c-2.094 0-3.805-1.711-3.805-3.768v-11.47c0-2.058 1.711-3.77 3.805-3.77h11.416c2.075 0 3.787 1.712 3.787 3.77zm0 25.361c0 2.058-1.712 3.77-3.787 3.77h-11.416c-2.094 0-3.805-1.712-3.805-3.77v-11.45c0-2.094 1.711-3.787 3.805-3.787h11.416a3.796 3.796 0 0 1 3.787 3.787v11.452zm0 25.345c0 2.057-1.712 3.769-3.787 3.769h-11.416c-2.094 0-3.805-1.712-3.805-3.77v-11.433a3.815 3.815 0 0 1 3.805-3.805h11.416c2.075 0 3.787 1.711 3.787 3.805zm0 25.362c0 2.076-1.712 3.769-3.787 3.769h-11.416c-2.094 0-3.805-1.693-3.805-3.769v-11.434c0-2.075 1.711-3.805 3.805-3.805h11.416c2.075 0 3.787 1.73 3.787 3.805zm0 25.344c0 2.094-1.712 3.805-3.787 3.805h-11.416a3.815 3.815 0 0 1-3.805-3.805v-11.434c0-2.075 1.711-3.787 3.805-3.787h11.416c2.075 0 3.787 1.712 3.787 3.787zm0 25.362c0 2.094-1.712 3.806-3.787 3.806h-11.416a3.815 3.815 0 0 1-3.805-3.806V732.54c0-2.075 1.711-3.787 3.805-3.787h11.416c2.075 0 3.787 1.712 3.787 3.787v11.434zm24.961-278.93c0 2.076-1.711 3.787-3.805 3.787h-11.416c-2.075 0-3.787-1.711-3.787-3.787V453.61a3.8 3.8 0 0 1 3.787-3.805h11.416a3.804 3.804 0 0 1 3.805 3.805v11.434zm0 25.344c0 2.076-1.711 3.787-3.805 3.787h-11.416c-2.075 0-3.787-1.711-3.787-3.787v-11.434c0-2.093 1.712-3.805 3.787-3.805h11.416a3.815 3.815 0 0 1 3.805 3.805zm0 25.363c0 2.075-1.711 3.805-3.805 3.805h-11.416c-2.075 0-3.787-1.73-3.787-3.805v-11.434c0-2.076 1.712-3.806 3.787-3.806h11.416c2.094 0 3.805 1.73 3.805 3.806zm0 177.517c0 2.076-1.711 3.769-3.805 3.769h-11.416c-2.075 0-3.787-1.693-3.787-3.769v-11.434c0-2.075 1.712-3.805 3.787-3.805h11.416c2.094 0 3.805 1.73 3.805 3.805zm0 25.344a3.815 3.815 0 0 1-3.805 3.805h-11.416c-2.075 0-3.787-1.711-3.787-3.805v-11.434c0-2.075 1.712-3.787 3.787-3.787h11.416c2.094 0 3.805 1.712 3.805 3.787zm0 25.362a3.815 3.815 0 0 1-3.805 3.806h-11.416c-2.075 0-3.787-1.712-3.787-3.806V732.54c0-2.075 1.712-3.787 3.787-3.787h11.416c2.094 0 3.805 1.712 3.805 3.787v11.434zm24.962-278.93c0 2.076-1.711 3.787-3.787 3.787h-11.434c-2.076 0-3.787-1.711-3.787-3.787V453.61a3.8 3.8 0 0 1 3.787-3.805h11.434a3.8 3.8 0 0 1 3.787 3.805v11.434zm0 25.344c0 2.076-1.711 3.787-3.787 3.787h-11.434c-2.076 0-3.787-1.711-3.787-3.787v-11.434c0-2.093 1.711-3.805 3.787-3.805h11.434c2.076 0 3.787 1.712 3.787 3.805zm0 25.363c0 2.075-1.711 3.805-3.787 3.805h-11.434c-2.076 0-3.787-1.73-3.787-3.805v-11.434c0-2.076 1.711-3.806 3.787-3.806h11.434c2.076 0 3.787 1.73 3.787 3.806zm0 177.517c0 2.076-1.711 3.769-3.787 3.769h-11.434c-2.076 0-3.787-1.693-3.787-3.769v-11.434c0-2.075 1.711-3.805 3.787-3.805h11.434c2.076 0 3.787 1.73 3.787 3.805zm0 25.344c0 2.094-1.711 3.805-3.787 3.805h-11.434c-2.076 0-3.787-1.711-3.787-3.805v-11.434c0-2.075 1.711-3.787 3.787-3.787h11.434c2.076 0 3.787 1.712 3.787 3.787zm0 25.362c0 2.094-1.711 3.806-3.787 3.806h-11.434c-2.076 0-3.787-1.712-3.787-3.806V732.54c0-2.075 1.711-3.787 3.787-3.787h11.434c2.076 0 3.787 1.712 3.787 3.787v11.434zm24.962-278.93c0 2.076-1.712 3.787-3.805 3.787h-11.416a3.796 3.796 0 0 1-3.787-3.787V453.61a3.788 3.788 0 0 1 3.787-3.805h11.416a3.804 3.804 0 0 1 3.805 3.805v11.434zm0 25.344c0 2.076-1.712 3.787-3.805 3.787h-11.416a3.796 3.796 0 0 1-3.787-3.787v-11.434c0-2.093 1.693-3.805 3.787-3.805h11.416a3.815 3.815 0 0 1 3.805 3.805zm0 25.363c0 2.075-1.712 3.805-3.805 3.805h-11.416c-2.094 0-3.787-1.73-3.787-3.805v-11.434c0-2.076 1.693-3.806 3.787-3.806h11.416c2.093 0 3.805 1.73 3.805 3.806zm0 177.517c0 2.076-1.712 3.769-3.805 3.769h-11.416a3.78 3.78 0 0 1-3.787-3.769v-11.434c0-2.075 1.693-3.805 3.787-3.805h11.416c2.093 0 3.805 1.73 3.805 3.805zm0 25.344a3.815 3.815 0 0 1-3.805 3.805h-11.416c-2.094 0-3.787-1.711-3.787-3.805v-11.434a3.796 3.796 0 0 1 3.787-3.787h11.416c2.093 0 3.805 1.712 3.805 3.787zm0 25.362a3.815 3.815 0 0 1-3.805 3.806h-11.416c-2.094 0-3.787-1.712-3.787-3.806V732.54a3.796 3.796 0 0 1 3.787-3.787h11.416c2.093 0 3.805 1.712 3.805 3.787v11.434zm24.961-278.93c0 2.076-1.711 3.787-3.787 3.787H317.09c-2.075 0-3.787-1.711-3.787-3.787V453.61a3.8 3.8 0 0 1 3.787-3.805h11.434a3.8 3.8 0 0 1 3.787 3.805v11.434zm0 25.344c0 2.076-1.711 3.787-3.787 3.787H317.09c-2.075 0-3.787-1.711-3.787-3.787v-11.434c0-2.093 1.712-3.805 3.787-3.805h11.434c2.076 0 3.787 1.712 3.787 3.805zm0 25.363c0 2.075-1.711 3.805-3.787 3.805H317.09c-2.075 0-3.787-1.73-3.787-3.805v-11.434c0-2.076 1.712-3.806 3.787-3.806h11.434c2.076 0 3.787 1.73 3.787 3.806zm0 25.344c0 2.093-1.711 3.805-3.787 3.805H317.09c-2.075 0-3.787-1.712-3.787-3.805V529.66c0-2.076 1.712-3.77 3.787-3.77h11.434c2.076 0 3.787 1.694 3.787 3.77zm0 126.811c0 2.057-1.711 3.769-3.787 3.769H317.09c-2.075 0-3.787-1.712-3.787-3.77v-11.433c0-2.094 1.712-3.805 3.787-3.805h11.434c2.076 0 3.787 1.711 3.787 3.805zm0 25.362c0 2.076-1.711 3.769-3.787 3.769H317.09c-2.075 0-3.787-1.693-3.787-3.769v-11.434c0-2.075 1.712-3.805 3.787-3.805h11.434c2.076 0 3.787 1.73 3.787 3.805zm0 25.344c0 2.094-1.711 3.805-3.787 3.805H317.09c-2.075 0-3.787-1.711-3.787-3.805v-11.434c0-2.075 1.712-3.787 3.787-3.787h11.434c2.076 0 3.787 1.712 3.787 3.787zm0 25.362c0 2.094-1.711 3.806-3.787 3.806H317.09c-2.075 0-3.787-1.712-3.787-3.806V732.54c0-2.075 1.712-3.787 3.787-3.787h11.434c2.076 0 3.787 1.712 3.787 3.787v11.434zm24.962-253.586c0 2.076-1.711 3.787-3.805 3.787h-11.416c-2.094 0-3.805-1.711-3.805-3.787v-11.434a3.815 3.815 0 0 1 3.805-3.805h11.416a3.815 3.815 0 0 1 3.805 3.805zm0 25.363c0 2.075-1.711 3.805-3.805 3.805h-11.416c-2.094 0-3.805-1.73-3.805-3.805v-11.434c0-2.076 1.711-3.806 3.805-3.806h11.416c2.094 0 3.805 1.73 3.805 3.806zm0 25.344a3.815 3.815 0 0 1-3.805 3.805h-11.416a3.815 3.815 0 0 1-3.805-3.805V529.66c0-2.076 1.711-3.77 3.805-3.77h11.416c2.094 0 3.805 1.694 3.805 3.77zm0 126.811c0 2.057-1.711 3.769-3.805 3.769h-11.416c-2.094 0-3.805-1.712-3.805-3.77v-11.433a3.815 3.815 0 0 1 3.805-3.805h11.416a3.815 3.815 0 0 1 3.805 3.805zm0 25.362c0 2.076-1.711 3.769-3.805 3.769h-11.416c-2.094 0-3.805-1.693-3.805-3.769v-11.434c0-2.075 1.711-3.805 3.805-3.805h11.416c2.094 0 3.805 1.73 3.805 3.805zm0 25.344a3.815 3.815 0 0 1-3.805 3.805h-11.416a3.815 3.815 0 0 1-3.805-3.805v-11.434c0-2.075 1.711-3.787 3.805-3.787h11.416c2.094 0 3.805 1.712 3.805 3.787zm24.962-202.861a3.815 3.815 0 0 1-3.805 3.805h-11.416c-2.076 0-3.805-1.73-3.805-3.805v-11.434c0-2.076 1.73-3.806 3.805-3.806h11.416a3.815 3.815 0 0 1 3.805 3.806zm0 25.344a3.804 3.804 0 0 1-3.805 3.805h-11.416c-2.076 0-3.805-1.712-3.805-3.805V529.66c0-2.076 1.73-3.77 3.805-3.77h11.416c2.112 0 3.805 1.694 3.805 3.77zm0 126.811c0 2.057-1.693 3.769-3.805 3.769h-11.416c-2.076 0-3.805-1.712-3.805-3.77v-11.433c0-2.094 1.73-3.805 3.805-3.805h11.416a3.804 3.804 0 0 1 3.805 3.805zm0 25.362c0 2.076-1.693 3.769-3.805 3.769h-11.416c-2.076 0-3.805-1.693-3.805-3.769v-11.434c0-2.075 1.73-3.805 3.805-3.805h11.416a3.815 3.815 0 0 1 3.805 3.805z" fill="#ffd166"/><path d="M232.244 342.842c13.315 0 23.477 2.753 30.493 8.255 7.01 5.506 10.518 13.633 10.518 24.385v23.704c0 11.012-3.398 19.333-10.199 24.967-6.796 5.634-16.854 8.325-30.168 8.065h-65.702v-22.152h74.938c2.29 0 3.435-1.036 3.435-3.108v-38.86c0-2.072-1.145-3.108-3.435-3.108h-38.223c-13.31 0-23.368-2.654-30.165-7.966-6.8-5.312-10.203-13.472-10.203-24.48v-22.927c0-10.752 3.507-19.073 10.523-24.967 7.015-5.894 17.178-8.713 30.492-8.453h62.481v22.152h-72.36c-2.29 0-3.435 1.098-3.435 3.302v38.083c0 2.072 1.144 3.108 3.434 3.108zm193.464-65.672c6.44 0 10.988 1.264 13.634 3.79 2.65 2.526 3.973 6.57 3.973 12.143v138.14h-25.981V315.252l-39.292 68.78h-15.891l-38.005-68.004v115.217h-23.833V277.17h14.6c4.722 0 8.16.677 10.305 2.039 2.148 1.358 4.15 3.855 6.012 7.479l40.582 70.335 45.736-79.853zm148.371 154.074-9.661-38.662h-65.063l-10.947 38.662h-25.124l38.863-129.981c2.007-6.608 4.082-11.69 6.23-15.251 2.144-3.566 5.223-6.059 9.232-7.483 4.006-1.424 9.589-2.072 16.75-1.944h26.628l40.15 154.659zm-48.31-130.37-20.616 70.724h54.11l-18.678-73.443h-11.81c-1.719 0-2.722.904-3.005 2.72zm97.052 130.37V276.182l71.717.015c13.31-.26 23.368 2.43 30.169 8.065 6.797 5.634 10.2 13.955 10.2 24.967v27.588c0 16.451-7.874 26.877-23.62 31.281 4.293 2.72 7.873 7.838 10.734 15.35l18.683 47.796h-27.272l-21.47-57.314c-.43-1.168-.895-1.977-1.396-2.43-.502-.455-1.469-.682-2.901-.682h-37.79v60.426H622.82zm80.95-133.675h-53.897v52.265h53.897c2.29 0 3.434-1.098 3.434-3.302v-45.851c0-2.076-1.144-3.112-3.434-3.112zm88.252 133.675V298.349h-41.444v-22.167h109.722v22.167h-41.225v132.895z" fill="#fff"/></g></svg>